<svg width="1300" height="511" viewBox="0 0 1300 511" fill="none" xmlns="http://www.w3.org/2000/svg">
<path d="M814 5.0033H69C20.36 7.06362 5.87687 16.4256 5 48.5033V470.003C10.4446 494.464 17.5 506.503 69 506.503H814C841.5 506.503 858.857 505.157 857.5 480.503V420.003C857.5 396.003 899 396.003 899 396.003L1246.5 387.003C1280.93 390.473 1290.8 380.913 1295 347.503V173.003C1292.86 141.98 1289.7 125.834 1246.5 121.003H899C869.405 126.186 856.607 124.579 857.5 93.5033V38.0033C855.478 15.9325 852.354 4.77943 814 5.0033Z" stroke="black" stroke-width="9"/>
</svg>
