<svg width="1300" height="512" viewBox="0 0 1300 512" fill="none" xmlns="http://www.w3.org/2000/svg">
<path d="M485.666 506.281L1230.67 507.274C1279.31 505.279 1293.8 495.936 1294.72 463.859L1295.28 42.3598C1289.87 17.8917 1282.83 5.8432 1231.33 5.77456L486.334 4.78166C458.834 4.74501 441.475 6.06819 442.8 30.7237L442.719 91.2236C442.687 115.224 401.187 115.168 401.187 115.168L53.6753 123.705C19.2527 120.189 9.36816 129.736 5.12271 163.14L4.89014 337.64C6.99174 368.667 10.1281 384.817 53.3208 389.705L400.821 390.168C430.423 385.025 443.219 386.649 442.284 417.723L442.21 473.223C444.203 495.297 447.311 506.454 485.666 506.281Z" stroke="black" stroke-width="9"/>
</svg>
