<svg width="922" height="673" viewBox="0 0 922 673" fill="none" xmlns="http://www.w3.org/2000/svg">
<path d="M44.5 405.5C16.7335 392.791 8.59189 382.521 4 360V59.5C11.5002 32.6008 21.7548 20.3373 53 4.5H766C776.111 12.3834 780.223 18.3492 781 35.5C785.707 44.4149 789.66 48.5328 801 53H869C896.649 65.9194 905.798 78.1247 917.5 103.5V626C908.377 653.823 895.521 660.571 869 668.5H362.5C335.273 666.821 321.113 662.09 301 636L257.5 514.5C246.01 485.259 237.091 471.892 211 460.5" stroke="black" stroke-width="8"/>
<path d="M216.105 462.859L32.4887 401.549" stroke="black" stroke-width="8"/>
</svg>
